<svg width="60" height="10" viewBox="0 0 60 10" fill="none" xmlns="http://www.w3.org/2000/svg">
<circle cx="5.14268" cy="5.06865" r="4.6057" fill="white"/>
<circle cx="17.6438" cy="5.06865" r="4.6057" fill="white"/>
<circle cx="30.145" cy="5.06865" r="4.6057" fill="white"/>
<path d="M42.6462 9.67428C42.0414 9.67428 41.4425 9.55515 40.8837 9.32369C40.3249 9.09224 39.8172 8.75298 39.3895 8.3253C38.9618 7.89763 38.6225 7.3899 38.3911 6.83111C38.1596 6.27232 38.0405 5.67341 38.0405 5.06859C38.0405 4.46376 38.1596 3.86485 38.3911 3.30606C38.6225 2.74727 38.9618 2.23955 39.3895 1.81187C39.8172 1.38419 40.3249 1.04494 40.8837 0.813478C41.4425 0.58202 42.0414 0.46289 42.6462 0.46289L42.6462 5.06859L42.6462 9.67428Z" fill="white"/>
<circle cx="42.5908" cy="5.06865" r="4.27672" stroke="white" stroke-width="0.657957"/>
<circle cx="55.1474" cy="5.06865" r="4.27672" stroke="white" stroke-width="0.657957"/>
</svg>
